<svg xmlns="http://www.w3.org/2000/svg" xmlns:xlink="http://www.w3.org/1999/xlink" width="73.691" height="68.383" viewBox="0 0 73.691 68.383"><defs><style>.a{fill:#fff;}.b{fill:#26344b;}.c{fill:url(#a);}.d{fill:url(#b);}</style><linearGradient id="a" x1="0.5" x2="0.5" y2="1" gradientUnits="objectBoundingBox"><stop offset="0" stop-color="#009efd"/><stop offset="1" stop-color="#2af598"/></linearGradient><linearGradient id="b" x1="0.172" y1="0.5" x2="0.778" y2="1.978" xlink:href="#a"/></defs><g transform="translate(0 0)"><path class="a" d="M47.284,30.324,12.193,81.206H82.375Z" transform="translate(-10.438 -28.614)"/><path class="b" d="M112.307,133.385,83.266,91.276,54.225,133.385Z" transform="translate(-46.421 -80.793)"/><g transform="translate(0)"><path class="c" d="M71.937,72.789H1.755a1.754,1.754,0,0,1-1.444-2.75L35.4,19.157a1.817,1.817,0,0,1,2.889,0L73.381,70.039a1.754,1.754,0,0,1-1.445,2.75ZM5.1,69.28H68.6L36.846,23.244Z" transform="translate(0 -18.443)"/><path class="d" d="M71.939,472.691H1.757a1.754,1.754,0,0,1,0-3.509H71.939a1.754,1.754,0,0,1,0,3.509Z" transform="translate(-0.003 -404.308)"/></g></g></svg>