<svg width="274.691" height="86.383" xmlns="http://www.w3.org/2000/svg">
 <defs>
  <style>.a{fill:#fff;}.b{fill:#26344b;}.c{fill:url(#a);}.d{fill:url(#b);}</style>
 </defs>
 <g>
  <title>background</title>
  <rect fill="none" id="canvas_background" height="88.383" width="276.691" y="-1" x="-1"/>
 </g>
 <g>
  <title>Layer 1</title>
  <g stroke="null" id="svg_1">
   <path stroke="null" id="svg_2" d="m47.846,9.71l-35.091,50.882l70.182,0l-35.091,-50.882z" class="a"/>
   <path stroke="null" id="svg_3" d="m76.885999,60.592001l-29.041,-42.109l-29.041,42.109l58.082,0z" class="b"/>
   <g stroke="null" id="svg_4">
    <path stroke="null" id="svg_5" d="m82.937,62.345999l-70.182,0a1.754,1.754 0 0 1 -1.444,-2.75l35.089,-50.882a1.817,1.817 0 0 1 2.889,0l35.092,50.882a1.754,1.754 0 0 1 -1.445,2.75l0.001,0zm-66.837,-3.509l63.5,0l-31.754,-46.036l-31.746,46.036z" class="c"/>
    <path stroke="null" id="svg_6" d="m82.936,76.382986l-70.182,0a1.754,1.754 0 0 1 0,-3.509l70.182,0a1.754,1.754 0 0 1 0,3.509z" class="d"/>
   </g>
  </g>
  <text font-weight="normal" stroke="#000" transform="matrix(2.1572143193364055,0,0,2.1572143193364055,-113.08397229367318,-16.26421375000268) " xml:space="preserve" text-anchor="start" font-family="Helvetica, Arial, sans-serif" font-size="24" id="svg_7" y="32.747515" x="93.359073" stroke-width="0" fill="#009efd">V-Tutor</text>
  <text xml:space="preserve" text-anchor="start" font-family="Helvetica, Arial, sans-serif" font-size="11" id="svg_8" y="70.191498" x="103.84552" stroke-opacity="null" stroke-width="0" stroke="#000" fill="#000000">Your classroom bought closer</text>
 </g>
</svg>